ply
format ascii 1.0
comment Lidarformat test
element vertex 10
property float64 X
property float64 Y
property float64 Z
property uint8 r
property uint8 g
property uint8 b
end_header
919351.96 1914105.38 1075.35 0 0 0
919352.277777 1914105.38 1075.52 250 0 0
919353.57 1914105.38 1075.88 0 250 250
919354.56 1914105.38 1076.29 250 100 0
919355.56 1914105.38 1076.75 0 100 0
919356.56 1914105.38 1077.16 100 100 0
919357.56 1914105.38 1078.00 0 100 100
919358.56 1914105.38 1078.06 0 100 0
919359.56 1914105.38 1078.45 100 0 250
919360.56 1914108.38 1079.20 250 250 250
